<svg xmlns="http://www.w3.org/2000/svg" width="24" height="24" viewBox="0 0 24 24" fill="currentColor">
  <path d="M17.523 15.3414c-.5511 0-.9993-.4486-.9993-.9997s.4482-.9993.9993-.9993c.5511 0 .9993.4482.9993.9993.0001.5511-.4482.9997-.9993.9997m-11.046 0c-.5511 0-.9993-.4486-.9993-.9997s.4482-.9993.9993-.9993c.5511 0 .9993.4482.9993.9993 0 .5511-.4482.9997-.9993.9997m11.4045-6.02l1.9973-3.4592a.416.416 0 00-.1529-.5676.416.416 0 00-.5676.1529l-2.0294 3.513C15.5925 8.1693 13.8566 7.747 12 7.747c-1.8566 0-3.5925.4223-5.129 1.2135L4.8416 5.4475a.416.416 0 00-.5676-.1529.416.416 0 00-.1529.5676l1.9973 3.4592C2.6889 11.1867.3432 14.6589 0 18.761h24c-.3432-4.1021-2.6889-7.5743-6.1185-9.4396"/>
</svg>
